HIERARCHY
ROOT Hips
{
  OFFSET 5.72205e-005 65.662 3.42586
  CHANNELS 6 Xposition Yposition Zposition Zrotation Xrotation Yrotation
  JOINT Chest
  {
    OFFSET 0 8.7983 -4.7612
    CHANNELS 3 Zrotation Xrotation Yrotation
    JOINT Chest2
    {
      OFFSET 0 8.0291 0.4195
      CHANNELS 3 Zrotation Xrotation Yrotation
      JOINT Chest3
      {
        OFFSET 0 9.9351 -2.2114
        CHANNELS 3 Zrotation Xrotation Yrotation
        JOINT Neck
        {
          OFFSET 0 22.3885 -0.4656
          CHANNELS 3 Zrotation Xrotation Yrotation
          JOINT Head
          {
            OFFSET -0.0001 12.643 3.4389
            CHANNELS 3 Zrotation Xrotation Yrotation
            End Site
            {
              OFFSET 0.0001 17.6655 0.5274
            }
          }
        }
        JOINT LeftCollar
        {
          OFFSET 2.2603 21.606 7.4023
          CHANNELS 3 Zrotation Xrotation Yrotation
          JOINT LeftShoulder
          {
            OFFSET 13.5163 -1.1332 -5.0146
            CHANNELS 3 Zrotation Xrotation Yrotation
            JOINT LeftElbow
            {
              OFFSET -0.0995 -28.05 -0.2431
              CHANNELS 3 Zrotation Xrotation Yrotation
              JOINT LeftWrist
              {
                OFFSET 0.0679 -23.3996 -0.1402
                CHANNELS 3 Zrotation Xrotation Yrotation
                JOINT LeftFinger1
                {
                  OFFSET 0.7932 -9.069 2.5189
                  CHANNELS 3 Zrotation Xrotation Yrotation
                  JOINT LeftFinger11
                  {
                    OFFSET -0.8272 -3.3923 0.5977
                    CHANNELS 3 Zrotation Xrotation Yrotation
                    JOINT LeftFinger12
                    {
                      OFFSET -0.5649 -2.3158 0.4082
                      CHANNELS 3 Zrotation Xrotation Yrotation
                      End Site
                      {
                        OFFSET -0.4919 -1.6479 0.2673
                      }
                    }
                  }
                }
                JOINT LeftFinger2
                {
                  OFFSET 0.9159 -9.2044 0.2193
                  CHANNELS 3 Zrotation Xrotation Yrotation
                  JOINT LeftFinger21
                  {
                    OFFSET 0.0117 -4.1944 -0.0248
                    CHANNELS 3 Zrotation Xrotation Yrotation
                    JOINT LeftFinger22
                    {
                      OFFSET 0.0071 -2.3249 -0.0142
                      CHANNELS 3 Zrotation Xrotation Yrotation
                      End Site
                      {
                        OFFSET -0.1475 -2.0882 0.0028
                      }
                    }
                  }
                }
                JOINT LeftFinger3
                {
                  OFFSET 0.6113 -8.7231 -2.0637
                  CHANNELS 3 Zrotation Xrotation Yrotation
                  JOINT LeftFinger31
                  {
                    OFFSET -0.1927 -3.8059 -0.2383
                    CHANNELS 3 Zrotation Xrotation Yrotation
                    JOINT LeftFinger32
                    {
                      OFFSET -0.1091 -2.1688 -0.1362
                      CHANNELS 3 Zrotation Xrotation Yrotation
                      End Site
                      {
                        OFFSET -0.2358 -1.9176 -0.0906
                      }
                    }
                  }
                }
                JOINT LeftFinger4
                {
                  OFFSET -0.6151 -8.0947 -3.5641
                  CHANNELS 3 Zrotation Xrotation Yrotation
                  JOINT LeftFinger41
                  {
                    OFFSET -0.4882 -2.341 -0.6462
                    CHANNELS 3 Zrotation Xrotation Yrotation
                    JOINT LeftFinger42
                    {
                      OFFSET -0.3575 -1.7167 -0.4742
                      CHANNELS 3 Zrotation Xrotation Yrotation
                      End Site
                      {
                        OFFSET -0.4187 -1.5237 -0.3496
                      }
                    }
                  }
                }
                JOINT LeftFinger0
                {
                  OFFSET -1.42 -1.8761 1.4223
                  CHANNELS 3 Zrotation Xrotation Yrotation
                  JOINT LeftFinger01
                  {
                    OFFSET -1.1471 -3.4929 2.6334
                    CHANNELS 3 Zrotation Xrotation Yrotation
                    JOINT LeftFinger02
                    {
                      OFFSET -0.823 -2.3 1.6571
                      CHANNELS 3 Zrotation Xrotation Yrotation
                      End Site
                      {
                        OFFSET -0.5822 -1.6914 1.1582
                      }
                    }
                  }
                }
              }
            }
          }
        }
        JOINT RightCollar
        {
          OFFSET -2.2603 21.606 7.4023
          CHANNELS 3 Zrotation Xrotation Yrotation
          JOINT RightShoulder
          {
            OFFSET -13.5187 -1.1334 -5.0155
            CHANNELS 3 Zrotation Xrotation Yrotation
            JOINT RightElbow
            {
              OFFSET 0.0994 -28.0499 -0.2431
              CHANNELS 3 Zrotation Xrotation Yrotation
              JOINT RightWrist
              {
                OFFSET -0.0679 -23.3996 -0.1402
                CHANNELS 3 Zrotation Xrotation Yrotation
                JOINT RightFinger1
                {
                  OFFSET -0.7932 -9.0691 2.5189
                  CHANNELS 3 Zrotation Xrotation Yrotation
                  JOINT RightFinger11
                  {
                    OFFSET 0.8272 -3.3923 0.5977
                    CHANNELS 3 Zrotation Xrotation Yrotation
                    JOINT RightFinger12
                    {
                      OFFSET 0.565 -2.3158 0.4082
                      CHANNELS 3 Zrotation Xrotation Yrotation
                      End Site
                      {
                        OFFSET 0.4919 -1.6479 0.2673
                      }
                    }
                  }
                }
                JOINT RightFinger2
                {
                  OFFSET -0.916 -9.2044 0.2193
                  CHANNELS 3 Zrotation Xrotation Yrotation
                  JOINT RightFinger21
                  {
                    OFFSET -0.0117 -4.1944 -0.0248
                    CHANNELS 3 Zrotation Xrotation Yrotation
                    JOINT RightFinger22
                    {
                      OFFSET -0.0071 -2.3249 -0.0142
                      CHANNELS 3 Zrotation Xrotation Yrotation
                      End Site
                      {
                        OFFSET 0.1475 -2.0882 0.0028
                      }
                    }
                  }
                }
                JOINT RightFinger3
                {
                  OFFSET -0.6113 -8.7231 -2.0637
                  CHANNELS 3 Zrotation Xrotation Yrotation
                  JOINT RightFinger31
                  {
                    OFFSET 0.1927 -3.8059 -0.2383
                    CHANNELS 3 Zrotation Xrotation Yrotation
                    JOINT RightFinger32
                    {
                      OFFSET 0.1091 -2.1688 -0.1362
                      CHANNELS 3 Zrotation Xrotation Yrotation
                      End Site
                      {
                        OFFSET 0.2358 -1.9176 -0.0906
                      }
                    }
                  }
                }
                JOINT RightFinger4
                {
                  OFFSET 0.6151 -8.0947 -3.564
                  CHANNELS 3 Zrotation Xrotation Yrotation
                  JOINT RightFinger41
                  {
                    OFFSET 0.4882 -2.341 -0.6462
                    CHANNELS 3 Zrotation Xrotation Yrotation
                    JOINT RightFinger42
                    {
                      OFFSET 0.3574 -1.7166 -0.4742
                      CHANNELS 3 Zrotation Xrotation Yrotation
                      End Site
                      {
                        OFFSET 0.4187 -1.5237 -0.3496
                      }
                    }
                  }
                }
                JOINT RightFinger0
                {
                  OFFSET 1.4199 -1.8761 1.4221
                  CHANNELS 3 Zrotation Xrotation Yrotation
                  JOINT RightFinger01
                  {
                    OFFSET 1.1472 -3.4929 2.6336
                    CHANNELS 3 Zrotation Xrotation Yrotation
                    JOINT RightFinger02
                    {
                      OFFSET 0.8229 -2.3 1.6571
                      CHANNELS 3 Zrotation Xrotation Yrotation
                      End Site
                      {
                        OFFSET 0.5822 -1.6914 1.1582
                      }
                    }
                  }
                }
              }
            }
          }
        }
      }
    }
  }
  JOINT RightHip
  {
    OFFSET -9.412 3.9771 -0.7758
    CHANNELS 3 Zrotation Xrotation Yrotation
    JOINT RightKnee
    {
      OFFSET -0.7531 -40.938 0
      CHANNELS 3 Zrotation Xrotation Yrotation
      JOINT RightAnkle
      {
        OFFSET 0 -40.1986 0
        CHANNELS 3 Zrotation Xrotation Yrotation
        JOINT RightToe
        {
          OFFSET 0 -4.4182 9.239
          CHANNELS 3 Zrotation Xrotation Yrotation
          End Site
          {
            OFFSET 0 0 6.1981
          }
        }
      }
    }
  }
  JOINT LeftHip
  {
    OFFSET 9.4119 3.9773 -0.7758
    CHANNELS 3 Zrotation Xrotation Yrotation
    JOINT LeftKnee
    {
      OFFSET 0.7532 -40.9383 0
      CHANNELS 3 Zrotation Xrotation Yrotation
      JOINT LeftAnkle
      {
        OFFSET 0 -40.1986 0
        CHANNELS 3 Zrotation Xrotation Yrotation
        JOINT LeftToe
        {
          OFFSET 0 -4.4182 9.239
          CHANNELS 3 Zrotation Xrotation Yrotation
          End Site
          {
            OFFSET 0 0 6.1981
          }
        }
      }
    }
  }
}
MOTION
Frames:	6
Frame Time:	0.0333333
5.72205e-005 65.662 3.42586 0 0 -0 0 0 -0 0 0 -0 0 0 -0 0 0 -0 0 0 -0 0 0 -12.5014 88.1196 14.2451 10.6914 -0.00160068 -0.00239207 0.000740045 -8.4365e-005 7.00714e-005 -9.52055e-007 9.93923e-017 -1.98785e-016 -1.59028e-015 9.93923e-017 -5.96354e-016 -1.59028e-015 -9.93923e-017 -5.96354e-016 -1.59028e-015 9.93923e-017 -1.98785e-016 -1.59028e-015 -0.0128176 0.00232552 8.52707e-005 9.93923e-017 5.96354e-016 -0 9.93923e-017 -1.98785e-016 -1.59028e-015 -0.0160551 0.00299681 0.000857156 -2.48481e-016 0 3.18055e-015 9.93923e-017 -1.98785e-016 -1.59028e-015 -0.0125865 0.0031206 0.00282719 0 1.98785e-016 -0 9.93923e-017 -1.98785e-016 -1.59028e-015 9.93923e-017 -5.96354e-016 -1.59028e-015 -9.93923e-017 -5.96354e-016 -1.59028e-015 -0.865644 0.16582 7.03859 -88.0329 10.2057 -10.5567 0.0015593 -0.00248883 -0.000788628 7.87605e-005 4.10553e-005 1.24965e-005 -3.97569e-016 -7.95139e-016 3.18055e-015 -1.98785e-016 -3.97569e-016 3.18055e-015 -1.98785e-016 0 3.18055e-015 -3.97569e-016 -7.95139e-016 3.18055e-015 0.0129473 0.00231697 -8.70038e-005 9.93923e-017 -7.95139e-016 1.59028e-015 -3.97569e-016 -7.95139e-016 3.18055e-015 0.0163314 0.00303369 -0.000872333 3.97569e-016 7.95139e-016 -3.18055e-015 -3.97569e-016 -7.95139e-016 3.18055e-015 0.0145763 0.00367772 -0.00326275 9.93923e-017 -3.97569e-016 -0 -3.97569e-016 -7.95139e-016 3.18055e-015 -1.98785e-016 -3.97569e-016 3.18055e-015 -1.98785e-016 0 3.18055e-015 3.42482 1.32465 -0.0626183 0.000117508 0.717283 0.000978199 -3.4257 -2.04197 -0.0604716 6.47761e-025 0 -0 -3.42483 1.34017 0.0627307 -0.000193936 0.682302 -0.0013703 3.42574 -2.02253 0.0595886 -8.45714e-024 0 -7.40531e-025 
1.63347 23.1922 0.105479 7.07352e-008 40.9966 7.38872e-008 0.264995 -1.92017 -0.340672 0.518993 -3.84186 -0.67302 0.518993 -3.84185 -0.673019 4.41722e-006 -0.187139 -5.77375e-006 4.15847e-007 -0.428395 -7.56643e-007 8.83068 12.1616 15.3458 8.02755 -15.8541 -10.826 -45.7988 -38.032 -25.0721 9.9116 3.15404 14.9393 1.39149e-015 -1.59028e-015 1.19271e-015 -6.56676e-006 -8.53717e-007 -2.35804e-007 -3.67752e-015 6.36111e-015 -0 1.39149e-015 -1.59028e-015 1.19271e-015 -0.0128067 0.0023194 8.4317e-005 9.93923e-016 -3.18055e-015 -3.97569e-016 1.39149e-015 -1.59028e-015 1.19271e-015 -0.0160333 0.00299349 0.000856138 1.98785e-015 -3.18055e-015 1.19271e-015 1.39149e-015 -1.59028e-015 1.19271e-015 -0.0125938 0.00312352 0.0028298 3.08116e-015 -1.59028e-015 7.95139e-016 1.39149e-015 -1.59028e-015 1.19271e-015 -6.56676e-006 -8.53717e-007 -2.35804e-007 -3.67752e-015 6.36111e-015 -0 -10.4739 12.609 -21.3075 -7.03087 -15.8594 16.1649 45.8031 -38.3797 25.2171 -8.94386 3.73073 -14.738 -9.93923e-016 0 -0 1.19271e-015 -3.18055e-015 -1.59028e-015 7.95139e-016 -3.18055e-015 -0 -9.93923e-016 0 -0 0.0129503 0.00231538 -8.70413e-005 0 0 -0 -9.93923e-016 0 -0 0.0163177 0.00302833 -0.000876133 1.98785e-016 1.59028e-015 -1.59028e-015 -9.93923e-016 0 -0 0.0145757 0.00367709 -0.00326456 1.39149e-015 -1.59028e-015 -1.59028e-015 -9.93923e-016 0 -0 1.19271e-015 -3.18055e-015 -1.59028e-015 7.95139e-016 -3.18055e-015 -0 -25.1149 -38.0576 -19.5231 -173.762 79.584 172.206 30.513 39.455 -31.7808 3.31214e-007 -4.20244e-006 7.4298e-007 25.0892 -38.0584 19.5 173.866 79.59 -172.307 -30.5311 39.4374 31.792 -9.12133e-006 -2.26845e-006 -6.59123e-007 
1.63348 23.0367 0.696127 -2.94e-008 39.2383 6.88133e-008 0.26167 -1.44718 -0.344088 0.514887 -2.89587 -0.681888 0.514885 -2.89587 -0.681885 -0.0390476 -0.15259 0.00199618 2.964e-007 -0.846711 -2.68574e-007 8.74991 11.426 15.2148 8.02755 -15.8541 -10.8259 -45.0341 -37.7309 -24.5686 9.7314 2.8649 15.0977 -1.40704e-007 1.22077e-008 -8.40395e-007 6.91664e-007 7.79579e-007 -9.7096e-007 -1.40704e-007 -8.29856e-007 -8.40395e-007 -1.40704e-007 1.22077e-008 -8.40395e-007 -0.0128103 0.00232513 8.30554e-005 -2.11023e-007 -1.67803e-006 -1.2606e-006 -1.40704e-007 1.22077e-008 -8.40395e-007 -0.0160383 0.00299649 0.000856338 -2.11013e-007 -1.67803e-006 -1.2606e-006 -1.40704e-007 1.22077e-008 -8.40395e-007 -0.0126038 0.00312718 0.00282933 6.95746e-016 1.59028e-015 -1.19271e-015 -1.40704e-007 1.22077e-008 -8.40395e-007 6.91664e-007 7.79579e-007 -9.7096e-007 -1.40704e-007 -8.29856e-007 -8.40395e-007 -10.3763 11.8783 -21.1778 -7.0309 -15.8594 16.1649 45.0435 -38.0816 24.7138 -8.78316 3.43557 -14.9068 1.98785e-015 0 1.59028e-015 -1.27839e-007 -1.8744e-008 -8.36911e-007 -2.38542e-015 -1.59028e-015 -0 1.98785e-015 0 1.59028e-015 0.0129381 0.00231462 -8.66301e-005 -3.97569e-016 -3.18055e-015 1.59028e-015 1.98785e-015 0 1.59028e-015 0.0163382 0.0030358 -0.000873908 0 0 -1.59028e-015 1.98785e-015 0 1.59028e-015 0.0145923 0.00368252 -0.00326543 1.78906e-015 -3.18055e-015 1.59028e-015 1.98785e-015 0 1.59028e-015 -1.27839e-007 -1.8744e-008 -8.36911e-007 -2.38542e-015 -1.59028e-015 -0 -24.9216 -35.7441 -18.9407 -173.572 80.2195 172.039 29.9615 39.6019 -31.3686 -3.97569e-016 -3.49861e-014 6.36111e-015 24.897 -35.7463 18.9179 173.69 80.2256 -172.152 -29.9793 39.5865 31.3793 2.77097e-006 -7.65963e-007 -3.29955e-009 
1.63349 22.8888 1.28923 -1.35472e-008 37.4732 -1.92652e-007 0.258324 -0.972515 -0.347411 0.510852 -1.94655 -0.690578 0.510854 -1.94656 -0.690581 -0.0780933 -0.118107 0.00401009 -1.07006e-007 -1.26553 3.79145e-007 8.66757 10.69 15.083 8.02752 -15.8541 -10.8259 -44.2754 -37.4244 -24.0721 9.552 2.57522 15.2551 -2.48481e-015 0 -0 -4.69734e-006 2.65665e-006 -5.84287e-007 -3.97569e-016 -3.18055e-015 3.97569e-016 -2.48481e-015 0 -0 -0.0128204 0.00232537 8.44027e-005 -1.78906e-015 -6.36111e-015 -3.97569e-016 -2.48481e-015 0 -0 -0.0160514 0.00299813 0.000857515 1.98785e-015 -1.59028e-015 -3.97569e-016 -2.48481e-015 0 -0 -0.0125992 0.00312553 0.00282819 -2.48481e-015 -4.77083e-015 1.19271e-015 -2.48481e-015 0 -0 -4.69734e-006 2.65665e-006 -5.84287e-007 -3.97569e-016 -3.18055e-015 3.97569e-016 -10.2772 11.1472 -21.0471 -7.03103 -15.8594 16.1648 44.2901 -37.7781 24.2174 -8.62334 3.13989 -15.0749 -0 -1.59028e-015 -0 -3.18055e-015 0 -1.59028e-015 -2.5842e-015 -1.59028e-015 -1.59028e-015 -0 -1.59028e-015 -0 0.0129542 0.00231659 -8.57664e-005 1.98785e-016 3.18055e-015 1.59028e-015 -0 -1.59028e-015 -0 0.0163429 0.00303397 -0.000874489 -5.96354e-016 1.59028e-015 4.77083e-015 -0 -1.59028e-015 -0 0.0145764 0.00367316 -0.00326209 1.98785e-016 1.59028e-015 -0 -0 -1.59028e-015 -0 -3.18055e-015 0 -1.59028e-015 -2.5842e-015 -1.59028e-015 -1.59028e-015 -24.7561 -33.4132 -18.3785 -173.356 80.8552 171.845 29.4072 39.7448 -30.9542 6.4365e-006 -2.88085e-006 1.43607e-006 24.7325 -33.4171 18.3558 173.49 80.8612 -171.974 -29.4247 39.7316 30.9641 -1.37149e-005 3.66375e-006 6.78787e-006 
1.6335 22.7486 1.88447 5.84056e-008 35.7022 -3.59863e-008 0.254996 -0.49647 -0.350694 0.506972 -0.994476 -0.699209 0.506971 -0.994488 -0.699208 -0.117345 -0.0832446 0.00632799 -1.75233e-007 -1.6848 2.8488e-007 8.58342 9.95424 14.9506 8.02755 -15.8541 -10.826 -43.5229 -37.1125 -23.5824 9.37344 2.28501 15.4115 2.78299e-015 1.59028e-015 -0 1.09332e-015 1.59028e-015 -0 1.19271e-015 0 7.95139e-016 2.78299e-015 1.59028e-015 -0 -0.0128104 0.00232132 8.47499e-005 9.93923e-017 1.59028e-015 1.19271e-015 2.78299e-015 1.59028e-015 -0 -0.0160409 0.00299305 0.000857164 -7.95139e-016 -1.59028e-015 1.98785e-015 2.78299e-015 1.59028e-015 -0 -0.0125685 0.00311598 0.00282432 2.98177e-016 6.36111e-015 -0 2.78299e-015 1.59028e-015 -0 1.09332e-015 1.59028e-015 -0 1.19271e-015 0 7.95139e-016 -10.1769 10.4161 -20.915 -7.03089 -15.8593 16.1649 43.5424 -37.4694 23.7279 -8.46439 2.84372 -15.242 1.59028e-015 0 -0 -1.98785e-016 1.59028e-015 3.18055e-015 2.38542e-015 -8.49518e-007 1.59028e-015 1.59028e-015 0 -0 0.012942 0.00231649 -8.64173e-005 5.96354e-016 -8.49512e-007 -1.59028e-015 1.59028e-015 0 -0 0.0163273 0.00303565 -0.000873573 1.98785e-016 1.59028e-015 -0 1.59028e-015 0 -0 0.0145695 0.00367675 -0.00325904 3.97569e-016 -8.49519e-007 -4.77083e-015 1.59028e-015 0 -0 -1.98785e-016 1.59028e-015 3.18055e-015 2.38542e-015 -8.49518e-007 1.59028e-015 -24.6159 -31.0679 -17.8335 -173.111 81.4903 171.621 28.8501 39.8836 -30.5374 5.53299e-006 -2.81154e-006 -6.78232e-009 24.5934 -31.0731 17.8111 173.263 81.4964 -171.767 -28.8672 39.8725 30.5466 4.49935e-007 -9.54166e-015 7.20921e-007 
1.6335 22.6162 2.48162 1.76273e-007 33.926 -2.9051e-007 0.251625 -0.0190191 -0.353852 0.503122 -0.0395855 -0.707608 0.503121 -0.0395977 -0.707608 -0.15649 -0.0491505 0.00852714 4.35408e-008 -2.1045 -3.02478e-007 8.49779 9.21747 14.8173 8.02756 -15.8541 -10.8259 -42.7765 -36.7954 -23.0997 9.19563 1.99429 15.5671 -0 0 7.95139e-016 -9.93923e-017 1.59028e-015 3.97569e-016 -1.68967e-015 3.18055e-015 -0 -0 0 7.95139e-016 -0.0128253 0.00232592 8.42298e-005 -3.97569e-016 1.59028e-015 -1.19271e-015 -0 0 7.95139e-016 -0.016029 0.00299562 0.000856949 1.19271e-015 1.59028e-015 1.19271e-015 -0 0 7.95139e-016 -0.0125898 0.0031201 0.00282921 3.27995e-015 1.59028e-015 -1.98785e-015 -0 0 7.95139e-016 -9.93923e-017 1.59028e-015 3.97569e-016 -1.68967e-015 3.18055e-015 -0 -10.0749 9.68425 -20.7821 -7.03087 -15.8594 16.1649 42.801 -37.1555 23.2452 -8.30636 2.54709 -15.4084 -1.59028e-015 4.77083e-015 1.59028e-015 -1.78906e-015 3.18055e-015 -0 -3.97569e-016 1.59028e-015 -0 -1.59028e-015 4.77083e-015 1.59028e-015 0.0129477 0.00231677 -8.57394e-005 3.18055e-015 4.77083e-015 -0 -1.59028e-015 4.77083e-015 1.59028e-015 0.016324 0.00303319 -0.000873806 -9.93923e-016 -3.18055e-015 -1.59028e-015 -1.59028e-015 4.77083e-015 1.59028e-015 0.0145775 0.00367875 -0.00326563 1.78906e-015 3.18055e-015 1.59028e-015 -1.59028e-015 4.77083e-015 1.59028e-015 -1.78906e-015 3.18055e-015 -0 -3.97569e-016 1.59028e-015 -0 -24.4996 -28.7095 -17.304 -172.828 82.1252 171.357 28.2903 40.0182 -30.1184 -2.3139e-006 3.31785e-006 7.23675e-007 24.478 -28.7162 17.2815 173.001 82.1314 -171.523 -28.3069 40.0093 30.1268 -3.18055e-015 2.74924e-006 3.18055e-015 
